<mxfile host="65bd71144e">
    <diagram id="42UDUbA1u2Vu9-djvRqz" name="ページ1">
        <mxGraphModel dx="1400" dy="971" grid="1" gridSize="10" guides="1" tooltips="1" connect="1" arrows="1" fold="1" page="1" pageScale="1" pageWidth="827" pageHeight="1169" math="0" shadow="0">
            <root>
                <mxCell id="0"/>
                <mxCell id="1" parent="0"/>
                <mxCell id="9" value="" style="edgeStyle=none;html=1;" edge="1" parent="1" source="2" target="8">
                    <mxGeometry relative="1" as="geometry"/>
                </mxCell>
                <mxCell id="2" value="name&lt;br&gt;address&lt;br&gt;phone_number&lt;br&gt;created_at&lt;br&gt;updated_at" style="whiteSpace=wrap;html=1;" vertex="1" parent="1">
                    <mxGeometry x="30" y="340" width="220" height="210" as="geometry"/>
                </mxCell>
                <mxCell id="8" value="restaurantsテーブル" style="whiteSpace=wrap;html=1;" vertex="1" parent="1">
                    <mxGeometry x="30" y="340" width="220" height="30" as="geometry"/>
                </mxCell>
                <mxCell id="11" value="&lt;br&gt;&lt;br&gt;&lt;br&gt;rating&lt;br&gt;comment&lt;br&gt;created_at&lt;br&gt;updated_at" style="whiteSpace=wrap;html=1;" vertex="1" parent="1">
                    <mxGeometry x="414" y="340" width="220" height="210" as="geometry"/>
                </mxCell>
                <mxCell id="13" value="reveiwsテーブル" style="whiteSpace=wrap;html=1;" vertex="1" parent="1">
                    <mxGeometry x="414" y="340" width="220" height="30" as="geometry"/>
                </mxCell>
                <mxCell id="14" value="&lt;br&gt;name" style="whiteSpace=wrap;html=1;" vertex="1" parent="1">
                    <mxGeometry x="1190" y="340" width="220" height="210" as="geometry"/>
                </mxCell>
                <mxCell id="15" value="tagsテーブル" style="whiteSpace=wrap;html=1;" vertex="1" parent="1">
                    <mxGeometry x="1190" y="340" width="220" height="30" as="geometry"/>
                </mxCell>
                <mxCell id="17" value="" style="whiteSpace=wrap;html=1;" vertex="1" parent="1">
                    <mxGeometry x="827" y="400" width="220" height="210" as="geometry"/>
                </mxCell>
                <mxCell id="18" value="review_tagsテーブル" style="whiteSpace=wrap;html=1;" vertex="1" parent="1">
                    <mxGeometry x="827" y="400" width="220" height="30" as="geometry"/>
                </mxCell>
                <mxCell id="19" value="id" style="whiteSpace=wrap;html=1;" vertex="1" parent="1">
                    <mxGeometry x="30" y="370" width="220" height="30" as="geometry"/>
                </mxCell>
                <mxCell id="21" style="html=1;entryX=1;entryY=0.5;entryDx=0;entryDy=0;fillColor=#d80073;strokeColor=#A50040;startArrow=ERmany;startFill=0;endArrow=none;endFill=0;" edge="1" parent="1" source="20" target="19">
                    <mxGeometry relative="1" as="geometry"/>
                </mxCell>
                <mxCell id="20" value="restaurant_id" style="whiteSpace=wrap;html=1;" vertex="1" parent="1">
                    <mxGeometry x="414" y="370" width="220" height="30" as="geometry"/>
                </mxCell>
                <mxCell id="22" value="id" style="whiteSpace=wrap;html=1;" vertex="1" parent="1">
                    <mxGeometry x="414" y="400" width="220" height="30" as="geometry"/>
                </mxCell>
                <mxCell id="23" value="id" style="whiteSpace=wrap;html=1;" vertex="1" parent="1">
                    <mxGeometry x="1190" y="370" width="220" height="30" as="geometry"/>
                </mxCell>
                <mxCell id="26" value="tag_id" style="whiteSpace=wrap;html=1;" vertex="1" parent="1">
                    <mxGeometry x="827" y="460" width="220" height="30" as="geometry"/>
                </mxCell>
                <mxCell id="27" value="review_id" style="whiteSpace=wrap;html=1;" vertex="1" parent="1">
                    <mxGeometry x="827" y="430" width="220" height="30" as="geometry"/>
                </mxCell>
                <mxCell id="28" style="html=1;entryX=1;entryY=0.5;entryDx=0;entryDy=0;fillColor=#d80073;strokeColor=#A50040;startArrow=ERmany;startFill=0;endArrow=none;endFill=0;exitX=0;exitY=0.5;exitDx=0;exitDy=0;" edge="1" parent="1" source="27">
                    <mxGeometry relative="1" as="geometry">
                        <mxPoint x="798" y="430" as="sourcePoint"/>
                        <mxPoint x="634" y="414.0900000000001" as="targetPoint"/>
                        <Array as="points"/>
                    </mxGeometry>
                </mxCell>
                <mxCell id="29" style="html=1;entryX=0;entryY=0.25;entryDx=0;entryDy=0;fillColor=#d80073;strokeColor=#A50040;startArrow=ERmany;startFill=0;endArrow=none;endFill=0;exitX=1;exitY=0.5;exitDx=0;exitDy=0;" edge="1" parent="1" source="26" target="23">
                    <mxGeometry relative="1" as="geometry">
                        <mxPoint x="1190" y="400.4499999999999" as="sourcePoint"/>
                        <mxPoint x="997" y="369.54000000000013" as="targetPoint"/>
                        <Array as="points"/>
                    </mxGeometry>
                </mxCell>
            </root>
        </mxGraphModel>
    </diagram>
</mxfile>